G04 EAGLE Gerber RS-274X export*
G75*
%MOMM*%
%FSLAX34Y34*%
%LPD*%
%INBottom Copper*%
%IPPOS*%
%AMOC8*
5,1,8,0,0,1.08239X$1,22.5*%
G01*
%ADD10C,1.041400*%
%ADD11R,1.041400X2.032000*%
%ADD12C,1.320800*%
%ADD13C,1.308000*%
%ADD14C,0.906400*%
%ADD15C,0.806400*%
%ADD16C,0.254000*%


D10*
X63500Y25400D02*
X63500Y14986D01*
D11*
X63500Y10160D03*
D10*
X76200Y14986D02*
X76200Y25400D01*
D11*
X76200Y10160D03*
D10*
X88900Y14986D02*
X88900Y25400D01*
D11*
X88900Y10160D03*
D10*
X101600Y14986D02*
X101600Y25400D01*
D11*
X101600Y10160D03*
D10*
X114300Y14986D02*
X114300Y25400D01*
D11*
X114300Y10160D03*
D10*
X127000Y14986D02*
X127000Y25400D01*
D11*
X127000Y10160D03*
D10*
X139700Y14986D02*
X139700Y25400D01*
D11*
X139700Y10160D03*
D10*
X152400Y14986D02*
X152400Y25400D01*
D11*
X152400Y10160D03*
D10*
X165100Y14986D02*
X165100Y25400D01*
D11*
X165100Y10160D03*
D10*
X177800Y14986D02*
X177800Y25400D01*
D11*
X177800Y10160D03*
D10*
X190500Y14986D02*
X190500Y25400D01*
D11*
X190500Y10160D03*
D10*
X203200Y14986D02*
X203200Y25400D01*
D11*
X203200Y10160D03*
D10*
X215900Y14986D02*
X215900Y25400D01*
D11*
X215900Y10160D03*
D10*
X228600Y14986D02*
X228600Y25400D01*
D11*
X228600Y10160D03*
D10*
X241300Y14986D02*
X241300Y25400D01*
D11*
X241300Y10160D03*
D10*
X254000Y14986D02*
X254000Y25400D01*
D11*
X254000Y10160D03*
D10*
X266700Y14986D02*
X266700Y25400D01*
D11*
X266700Y10160D03*
D10*
X279400Y14986D02*
X279400Y25400D01*
D11*
X279400Y10160D03*
D10*
X292100Y14986D02*
X292100Y25400D01*
D11*
X292100Y10160D03*
D10*
X304800Y14986D02*
X304800Y25400D01*
D11*
X304800Y10160D03*
D10*
X317500Y14986D02*
X317500Y25400D01*
D11*
X317500Y10160D03*
D10*
X330200Y14986D02*
X330200Y25400D01*
D11*
X330200Y10160D03*
D10*
X342900Y14986D02*
X342900Y25400D01*
D11*
X342900Y10160D03*
D10*
X355600Y14986D02*
X355600Y25400D01*
D11*
X355600Y10160D03*
D10*
X368300Y14986D02*
X368300Y25400D01*
D11*
X368300Y10160D03*
D10*
X381000Y14986D02*
X381000Y25400D01*
D11*
X381000Y10160D03*
D10*
X393700Y14986D02*
X393700Y25400D01*
D11*
X393700Y10160D03*
D10*
X406400Y14986D02*
X406400Y25400D01*
D11*
X406400Y10160D03*
D10*
X419100Y14986D02*
X419100Y25400D01*
D11*
X419100Y10160D03*
D10*
X431800Y14986D02*
X431800Y25400D01*
D11*
X431800Y10160D03*
D10*
X444500Y14986D02*
X444500Y25400D01*
D11*
X444500Y10160D03*
D10*
X457200Y14986D02*
X457200Y25400D01*
D11*
X457200Y10160D03*
D10*
X469900Y14986D02*
X469900Y25400D01*
D11*
X469900Y10160D03*
D10*
X482600Y14986D02*
X482600Y25400D01*
D11*
X482600Y10160D03*
D10*
X495300Y14986D02*
X495300Y25400D01*
D11*
X495300Y10160D03*
D10*
X508000Y14986D02*
X508000Y25400D01*
D11*
X508000Y10160D03*
D10*
X520700Y14986D02*
X520700Y25400D01*
D11*
X520700Y10160D03*
D10*
X533400Y14986D02*
X533400Y25400D01*
D11*
X533400Y10160D03*
D10*
X546100Y14986D02*
X546100Y25400D01*
D11*
X546100Y10160D03*
D10*
X558800Y14986D02*
X558800Y25400D01*
D11*
X558800Y10160D03*
D10*
X622300Y14986D02*
X622300Y25400D01*
D11*
X622300Y10160D03*
D10*
X635000Y14986D02*
X635000Y25400D01*
D11*
X635000Y10160D03*
D10*
X647700Y14986D02*
X647700Y25400D01*
D11*
X647700Y10160D03*
D10*
X660400Y14986D02*
X660400Y25400D01*
D11*
X660400Y10160D03*
D10*
X673100Y14986D02*
X673100Y25400D01*
D11*
X673100Y10160D03*
D10*
X685800Y14986D02*
X685800Y25400D01*
D11*
X685800Y10160D03*
D10*
X698500Y14986D02*
X698500Y25400D01*
D11*
X698500Y10160D03*
D10*
X711200Y14986D02*
X711200Y25400D01*
D11*
X711200Y10160D03*
D10*
X723900Y14986D02*
X723900Y25400D01*
D11*
X723900Y10160D03*
D10*
X736600Y14986D02*
X736600Y25400D01*
D11*
X736600Y10160D03*
D10*
X749300Y14986D02*
X749300Y25400D01*
D11*
X749300Y10160D03*
D10*
X762000Y14986D02*
X762000Y25400D01*
D11*
X762000Y10160D03*
D10*
X774700Y14986D02*
X774700Y25400D01*
D11*
X774700Y10160D03*
D10*
X787400Y14986D02*
X787400Y25400D01*
D11*
X787400Y10160D03*
D10*
X800100Y14986D02*
X800100Y25400D01*
D11*
X800100Y10160D03*
D10*
X812800Y14986D02*
X812800Y25400D01*
D11*
X812800Y10160D03*
D10*
X825500Y14986D02*
X825500Y25400D01*
D11*
X825500Y10160D03*
D10*
X838200Y14986D02*
X838200Y25400D01*
D11*
X838200Y10160D03*
D10*
X850900Y14986D02*
X850900Y25400D01*
D11*
X850900Y10160D03*
D10*
X863600Y14986D02*
X863600Y25400D01*
D11*
X863600Y10160D03*
D10*
X876300Y14986D02*
X876300Y25400D01*
D11*
X876300Y10160D03*
D10*
X889000Y14986D02*
X889000Y25400D01*
D11*
X889000Y10160D03*
D10*
X901700Y14986D02*
X901700Y25400D01*
D11*
X901700Y10160D03*
D10*
X914400Y14986D02*
X914400Y25400D01*
D11*
X914400Y10160D03*
D10*
X927100Y14986D02*
X927100Y25400D01*
D11*
X927100Y10160D03*
D10*
X939800Y14986D02*
X939800Y25400D01*
D11*
X939800Y10160D03*
D10*
X952500Y14986D02*
X952500Y25400D01*
D11*
X952500Y10160D03*
D10*
X965200Y14986D02*
X965200Y25400D01*
D11*
X965200Y10160D03*
D10*
X977900Y14986D02*
X977900Y25400D01*
D11*
X977900Y10160D03*
D10*
X990600Y14986D02*
X990600Y25400D01*
D11*
X990600Y10160D03*
D10*
X1003300Y14986D02*
X1003300Y25400D01*
D11*
X1003300Y10160D03*
D10*
X1016000Y14986D02*
X1016000Y25400D01*
D11*
X1016000Y10160D03*
D10*
X1028700Y14986D02*
X1028700Y25400D01*
D11*
X1028700Y10160D03*
D10*
X1041400Y14986D02*
X1041400Y25400D01*
D11*
X1041400Y10160D03*
D10*
X1054100Y14986D02*
X1054100Y25400D01*
D11*
X1054100Y10160D03*
D10*
X1066800Y14986D02*
X1066800Y25400D01*
D11*
X1066800Y10160D03*
D10*
X1079500Y14986D02*
X1079500Y25400D01*
D11*
X1079500Y10160D03*
D10*
X1092200Y14986D02*
X1092200Y25400D01*
D11*
X1092200Y10160D03*
D10*
X1104900Y14986D02*
X1104900Y25400D01*
D11*
X1104900Y10160D03*
D10*
X1117600Y14986D02*
X1117600Y25400D01*
D11*
X1117600Y10160D03*
D12*
X114300Y69596D02*
X114300Y82804D01*
X139700Y82804D02*
X139700Y69596D01*
X266700Y69596D02*
X266700Y82804D01*
X292100Y82804D02*
X292100Y69596D01*
X165100Y69596D02*
X165100Y82804D01*
X190500Y82804D02*
X190500Y69596D01*
X241300Y69596D02*
X241300Y82804D01*
X215900Y82804D02*
X215900Y69596D01*
X292100Y145796D02*
X292100Y159004D01*
X266700Y159004D02*
X266700Y145796D01*
X241300Y145796D02*
X241300Y159004D01*
X215900Y159004D02*
X215900Y145796D01*
X190500Y145796D02*
X190500Y159004D01*
X165100Y159004D02*
X165100Y145796D01*
X139700Y145796D02*
X139700Y159004D01*
X114300Y159004D02*
X114300Y145796D01*
D13*
X171260Y596900D02*
X184340Y596900D01*
X184340Y571500D02*
X171260Y571500D01*
X171260Y546100D02*
X184340Y546100D01*
X184340Y520700D02*
X171260Y520700D01*
X171260Y495300D02*
X184340Y495300D01*
X184340Y444500D02*
X171260Y444500D01*
X247460Y444500D02*
X260540Y444500D01*
X260540Y495300D02*
X247460Y495300D01*
X247460Y546100D02*
X260540Y546100D01*
X260540Y571500D02*
X247460Y571500D01*
X247460Y596900D02*
X260540Y596900D01*
X184340Y469900D02*
X171260Y469900D01*
X247460Y469900D02*
X260540Y469900D01*
X260540Y520700D02*
X247460Y520700D01*
X279210Y596900D02*
X292290Y596900D01*
X292290Y571500D02*
X279210Y571500D01*
X279210Y546100D02*
X292290Y546100D01*
X292290Y520700D02*
X279210Y520700D01*
X279210Y495300D02*
X292290Y495300D01*
X292290Y444500D02*
X279210Y444500D01*
X355410Y444500D02*
X368490Y444500D01*
X368490Y495300D02*
X355410Y495300D01*
X355410Y546100D02*
X368490Y546100D01*
X368490Y571500D02*
X355410Y571500D01*
X355410Y596900D02*
X368490Y596900D01*
X292290Y469900D02*
X279210Y469900D01*
X355410Y469900D02*
X368490Y469900D01*
X368490Y520700D02*
X355410Y520700D01*
X387160Y596900D02*
X400240Y596900D01*
X400240Y571500D02*
X387160Y571500D01*
X387160Y546100D02*
X400240Y546100D01*
X400240Y520700D02*
X387160Y520700D01*
X387160Y495300D02*
X400240Y495300D01*
X400240Y444500D02*
X387160Y444500D01*
X463360Y444500D02*
X476440Y444500D01*
X476440Y495300D02*
X463360Y495300D01*
X463360Y546100D02*
X476440Y546100D01*
X476440Y571500D02*
X463360Y571500D01*
X463360Y596900D02*
X476440Y596900D01*
X400240Y469900D02*
X387160Y469900D01*
X463360Y469900D02*
X476440Y469900D01*
X476440Y520700D02*
X463360Y520700D01*
X495110Y596900D02*
X508190Y596900D01*
X508190Y571500D02*
X495110Y571500D01*
X495110Y546100D02*
X508190Y546100D01*
X508190Y520700D02*
X495110Y520700D01*
X495110Y495300D02*
X508190Y495300D01*
X508190Y444500D02*
X495110Y444500D01*
X571310Y444500D02*
X584390Y444500D01*
X584390Y495300D02*
X571310Y495300D01*
X571310Y546100D02*
X584390Y546100D01*
X584390Y571500D02*
X571310Y571500D01*
X571310Y596900D02*
X584390Y596900D01*
X508190Y469900D02*
X495110Y469900D01*
X571310Y469900D02*
X584390Y469900D01*
X584390Y520700D02*
X571310Y520700D01*
X603060Y596900D02*
X616140Y596900D01*
X616140Y571500D02*
X603060Y571500D01*
X603060Y546100D02*
X616140Y546100D01*
X616140Y520700D02*
X603060Y520700D01*
X603060Y495300D02*
X616140Y495300D01*
X616140Y444500D02*
X603060Y444500D01*
X679260Y444500D02*
X692340Y444500D01*
X692340Y495300D02*
X679260Y495300D01*
X679260Y546100D02*
X692340Y546100D01*
X692340Y571500D02*
X679260Y571500D01*
X679260Y596900D02*
X692340Y596900D01*
X616140Y469900D02*
X603060Y469900D01*
X679260Y469900D02*
X692340Y469900D01*
X692340Y520700D02*
X679260Y520700D01*
X711010Y596900D02*
X724090Y596900D01*
X724090Y571500D02*
X711010Y571500D01*
X711010Y546100D02*
X724090Y546100D01*
X724090Y520700D02*
X711010Y520700D01*
X711010Y495300D02*
X724090Y495300D01*
X724090Y444500D02*
X711010Y444500D01*
X787210Y444500D02*
X800290Y444500D01*
X800290Y495300D02*
X787210Y495300D01*
X787210Y546100D02*
X800290Y546100D01*
X800290Y571500D02*
X787210Y571500D01*
X787210Y596900D02*
X800290Y596900D01*
X724090Y469900D02*
X711010Y469900D01*
X787210Y469900D02*
X800290Y469900D01*
X800290Y520700D02*
X787210Y520700D01*
X818960Y596900D02*
X832040Y596900D01*
X832040Y571500D02*
X818960Y571500D01*
X818960Y546100D02*
X832040Y546100D01*
X832040Y520700D02*
X818960Y520700D01*
X818960Y495300D02*
X832040Y495300D01*
X832040Y444500D02*
X818960Y444500D01*
X895160Y444500D02*
X908240Y444500D01*
X908240Y495300D02*
X895160Y495300D01*
X895160Y546100D02*
X908240Y546100D01*
X908240Y571500D02*
X895160Y571500D01*
X895160Y596900D02*
X908240Y596900D01*
X832040Y469900D02*
X818960Y469900D01*
X895160Y469900D02*
X908240Y469900D01*
X908240Y520700D02*
X895160Y520700D01*
X926910Y596900D02*
X939990Y596900D01*
X939990Y571500D02*
X926910Y571500D01*
X926910Y546100D02*
X939990Y546100D01*
X939990Y520700D02*
X926910Y520700D01*
X926910Y495300D02*
X939990Y495300D01*
X939990Y444500D02*
X926910Y444500D01*
X1003110Y444500D02*
X1016190Y444500D01*
X1016190Y495300D02*
X1003110Y495300D01*
X1003110Y546100D02*
X1016190Y546100D01*
X1016190Y571500D02*
X1003110Y571500D01*
X1003110Y596900D02*
X1016190Y596900D01*
X939990Y469900D02*
X926910Y469900D01*
X1003110Y469900D02*
X1016190Y469900D01*
X1016190Y520700D02*
X1003110Y520700D01*
D14*
X260350Y261620D03*
X320040Y247650D03*
X420370Y247650D03*
X996950Y261620D03*
X365100Y151130D03*
X404470Y166370D03*
X482600Y378460D03*
X364490Y363220D03*
X205740Y581660D03*
X313690Y581660D03*
X421640Y581660D03*
X529590Y581660D03*
X637540Y581660D03*
X745490Y581660D03*
X853440Y581660D03*
X961390Y581660D03*
X119380Y345440D03*
X855980Y345440D03*
D15*
X1148690Y205740D03*
X1029970Y95250D03*
X598898Y80732D03*
X501650Y127722D03*
D14*
X441960Y74208D03*
X386080Y74930D03*
X363942Y68580D03*
D15*
X149860Y233800D03*
X885190Y233800D03*
D14*
X871220Y380492D03*
X134620Y380492D03*
X346100Y204470D03*
X346100Y128270D03*
X384200Y128270D03*
X422300Y128270D03*
X384810Y166370D03*
X398780Y347980D03*
X500380Y347980D03*
D15*
X345440Y74930D03*
D16*
X345440Y68580D01*
X341630Y64770D01*
X325294Y64770D02*
X323302Y66762D01*
D15*
X323302Y66762D03*
D16*
X325294Y64770D02*
X341630Y64770D01*
D15*
X374476Y74930D03*
D16*
X370666Y78740D01*
X349250Y78740D01*
X345440Y74930D01*
X337820Y82550D01*
X332304Y82550D01*
X323196Y91658D02*
X323196Y100878D01*
D15*
X323196Y100878D03*
D16*
X323196Y91658D02*
X332304Y82550D01*
D15*
X333559Y74111D03*
D16*
X311150Y96520D01*
X311150Y100878D01*
D15*
X311150Y100878D03*
X441960Y128270D03*
D16*
X421640Y148590D01*
X421640Y211654D02*
X405130Y228164D01*
X415038Y324034D02*
X475164Y324034D01*
D15*
X475164Y324034D03*
D16*
X421640Y211654D02*
X421640Y148590D01*
X405130Y228164D02*
X405130Y314126D01*
X415038Y324034D01*
D15*
X403860Y128270D03*
D16*
X416560Y140970D01*
X416560Y209550D02*
X400050Y226060D01*
X400050Y316230D01*
X420370Y336550D01*
X449287Y336550D01*
X451974Y333864D01*
X457054Y333864D01*
D15*
X457054Y333864D03*
D16*
X416560Y209550D02*
X416560Y140970D01*
D15*
X365760Y128270D03*
D16*
X353060Y140970D01*
X369022Y328208D02*
X360680Y336550D01*
X355600Y336550D01*
D15*
X355600Y336550D03*
D16*
X353060Y187960D02*
X353060Y140970D01*
X353060Y187960D02*
X369022Y203922D01*
X369022Y328208D01*
D15*
X377364Y210820D03*
D16*
X377364Y218266D01*
X374102Y221528D01*
X374102Y318222D02*
X379730Y323850D01*
D15*
X379730Y323850D03*
D16*
X374102Y318222D02*
X374102Y221528D01*
X139700Y34290D02*
X139700Y25400D01*
X115570Y44450D02*
X97790Y62230D01*
X129540Y44450D02*
X139700Y34290D01*
X129540Y44450D02*
X115570Y44450D01*
D15*
X355600Y323850D03*
D16*
X97790Y264160D02*
X97790Y62230D01*
X97790Y264160D02*
X120650Y287020D01*
X347544Y287020D02*
X363942Y303418D01*
X363942Y315508D02*
X355600Y323850D01*
X347544Y287020D02*
X120650Y287020D01*
X363942Y303418D02*
X363942Y315508D01*
X127000Y34290D02*
X127000Y25400D01*
X127000Y34290D02*
X121920Y39370D01*
X113030Y39370D02*
X92710Y59690D01*
X113030Y39370D02*
X121920Y39370D01*
D15*
X355600Y311150D03*
D16*
X118546Y292100D02*
X92710Y266264D01*
X92710Y59690D01*
X345440Y292100D02*
X355600Y302260D01*
X355600Y311150D01*
X345440Y292100D02*
X118546Y292100D01*
D15*
X247650Y261620D03*
D16*
X247650Y212090D01*
D15*
X247650Y212090D03*
X234950Y261620D03*
X234950Y218440D03*
D16*
X234950Y261620D01*
D15*
X222250Y261620D03*
X222250Y218440D03*
D16*
X222250Y261620D01*
D15*
X209550Y261620D03*
X209550Y218440D03*
D16*
X209550Y261620D01*
D15*
X196850Y261620D03*
X196850Y218440D03*
D16*
X196850Y261620D01*
D15*
X184150Y261620D03*
X184150Y218440D03*
D16*
X184150Y261620D01*
D15*
X171450Y261620D03*
X171450Y218440D03*
D16*
X171450Y261620D01*
D15*
X158750Y261620D03*
D16*
X158750Y212090D01*
D15*
X158750Y212090D03*
X895350Y261620D03*
X895350Y217170D03*
D16*
X895350Y261620D01*
D15*
X908050Y261620D03*
X908050Y217170D03*
D16*
X908050Y261620D01*
D15*
X920750Y261620D03*
X920750Y217170D03*
D16*
X920750Y261620D01*
D15*
X946150Y261620D03*
X946150Y129540D03*
D16*
X946150Y261620D01*
X924560Y62230D02*
X952500Y34290D01*
X814867Y62230D02*
X745490Y131607D01*
X814867Y62230D02*
X924560Y62230D01*
X745490Y277402D02*
X752204Y284116D01*
D15*
X752204Y284116D03*
D16*
X745490Y277402D02*
X745490Y131607D01*
X952500Y34290D02*
X952500Y25400D01*
D15*
X602242Y366869D03*
D16*
X600884Y356703D02*
X595997Y351816D01*
X600884Y365511D02*
X602242Y366869D01*
X600884Y365511D02*
X600884Y356703D01*
X595997Y351816D02*
X516067Y351816D01*
X503393Y364490D01*
X471606Y364490D01*
X456914Y379182D01*
X406985Y379182D02*
X378497Y407670D01*
X406985Y379182D02*
X456914Y379182D01*
X334882Y407670D02*
X316230Y426322D01*
X334882Y407670D02*
X378497Y407670D01*
X316230Y542838D02*
X312968Y546100D01*
D15*
X312968Y546100D03*
D16*
X316230Y542838D02*
X316230Y426322D01*
X932180Y67310D02*
X965200Y34290D01*
X816971Y67310D02*
X750570Y133711D01*
X816971Y67310D02*
X932180Y67310D01*
X750570Y269972D02*
X763808Y283210D01*
D15*
X763808Y283210D03*
D16*
X750570Y269972D02*
X750570Y133711D01*
X965200Y34290D02*
X965200Y25400D01*
D15*
X592542Y360158D03*
D16*
X586498Y360158D01*
X583410Y357070D01*
X517997Y357070D01*
X505497Y369570D01*
X473710Y369570D02*
X459018Y384262D01*
X473710Y369570D02*
X505497Y369570D01*
X409090Y384262D02*
X380602Y412750D01*
X409090Y384262D02*
X459018Y384262D01*
X336986Y412750D02*
X321310Y428426D01*
X336986Y412750D02*
X380602Y412750D01*
X321310Y554990D02*
X337820Y571500D01*
X361950Y571500D01*
X321310Y554990D02*
X321310Y428426D01*
X939800Y72390D02*
X977900Y34290D01*
X819076Y72390D02*
X755650Y135816D01*
X819076Y72390D02*
X939800Y72390D01*
X755650Y263255D02*
X764001Y271606D01*
D15*
X764001Y271606D03*
D16*
X755650Y263255D02*
X755650Y135816D01*
X977900Y34290D02*
X977900Y25400D01*
D15*
X590724Y371762D03*
D16*
X587462Y368500D01*
X587462Y368307D01*
X581305Y362150D01*
X520102Y362150D01*
X492910Y389342D01*
X411194Y389342D02*
X382706Y417830D01*
X339090Y417830D01*
X411194Y389342D02*
X492910Y389342D01*
X339090Y417830D02*
X326390Y430530D01*
X326390Y547918D02*
X329652Y551180D01*
D15*
X329652Y551180D03*
D16*
X326390Y547918D02*
X326390Y430530D01*
X947420Y77470D02*
X990600Y34290D01*
X821180Y77470D02*
X760730Y137920D01*
X821180Y77470D02*
X947420Y77470D01*
X760730Y255635D02*
X775605Y270510D01*
D15*
X775605Y270510D03*
D16*
X760730Y255635D02*
X760730Y137920D01*
X990600Y34290D02*
X990600Y25400D01*
D15*
X579120Y371762D03*
D16*
X575310Y367952D01*
X521484Y367952D01*
X495014Y394422D01*
X413298Y394422D02*
X384810Y422910D01*
X341630Y422910D01*
X413298Y394422D02*
X495014Y394422D01*
X341630Y422910D02*
X331470Y433070D01*
X331470Y531234D02*
X334732Y534496D01*
D15*
X334732Y534496D03*
D16*
X331470Y531234D02*
X331470Y433070D01*
D15*
X417830Y285750D03*
D16*
X417830Y297180D01*
X433070Y312420D02*
X530860Y312420D01*
D15*
X530860Y312420D03*
D16*
X433070Y312420D02*
X417830Y297180D01*
D15*
X530860Y376294D03*
D16*
X520326Y376294D01*
X509270Y387350D01*
X509270Y400050D01*
X527050Y417830D01*
X527050Y476250D02*
X508000Y495300D01*
X501650Y495300D01*
X527050Y476250D02*
X527050Y417830D01*
D15*
X457200Y298450D03*
D16*
X466090Y307340D01*
D15*
X543560Y312420D03*
D16*
X527405Y304078D02*
X524143Y307340D01*
X527405Y304078D02*
X535218Y304078D01*
X543560Y312420D01*
D15*
X543560Y376294D03*
D16*
X557156Y389890D01*
X618490Y389890D02*
X638810Y410210D01*
X524143Y307340D02*
X466090Y307340D01*
X557156Y389890D02*
X618490Y389890D01*
X647065Y475615D02*
X627380Y495300D01*
X609600Y495300D01*
X638810Y467360D02*
X638810Y410210D01*
X647065Y475615D02*
X654050Y482600D01*
X647065Y475615D02*
X638810Y467360D01*
X711200Y495300D02*
X717550Y495300D01*
X711200Y495300D02*
X698500Y482600D01*
X654050Y482600D01*
X684530Y57586D02*
X660400Y33456D01*
X684530Y365430D02*
X687792Y368692D01*
D15*
X687792Y368692D03*
D16*
X684530Y365430D02*
X684530Y57586D01*
X660400Y33456D02*
X660400Y25400D01*
D15*
X447040Y424180D03*
D16*
X439420Y431800D02*
X439420Y530860D01*
X439420Y431800D02*
X447040Y424180D01*
X439420Y530860D02*
X454660Y546100D01*
X469900Y546100D01*
X689610Y55482D02*
X673100Y38972D01*
X689610Y358514D02*
X699396Y368300D01*
D15*
X699396Y368300D03*
D16*
X689610Y358514D02*
X689610Y55482D01*
X673100Y38972D02*
X673100Y25400D01*
D15*
X438835Y415838D03*
D16*
X454660Y571500D02*
X469900Y571500D01*
X438835Y421858D02*
X438835Y415838D01*
X438835Y421858D02*
X434340Y426353D01*
X434340Y551180D02*
X454660Y571500D01*
X434340Y551180D02*
X434340Y426353D01*
X694690Y53377D02*
X685800Y44487D01*
X694690Y351797D02*
X697952Y355059D01*
D15*
X697952Y355059D03*
D16*
X694690Y351797D02*
X694690Y53377D01*
X685800Y44487D02*
X685800Y25400D01*
D15*
X430766Y407496D03*
D16*
X430766Y413379D01*
X429223Y414923D01*
X429223Y551217D02*
X408940Y571500D01*
X393700Y571500D01*
X429223Y551217D02*
X429223Y414923D01*
X699770Y51273D02*
X698500Y50003D01*
X699770Y344544D02*
X709556Y354330D01*
D15*
X709556Y354330D03*
D16*
X699770Y105410D02*
X699770Y51273D01*
X699770Y105410D02*
X699770Y344544D01*
X698500Y50003D02*
X698500Y25400D01*
D15*
X419162Y405678D03*
D16*
X419162Y411941D01*
X408940Y546100D02*
X393700Y546100D01*
X424143Y416921D02*
X419162Y411941D01*
X424143Y416921D02*
X424143Y530897D01*
X408940Y546100D01*
X704850Y55880D02*
X711200Y49530D01*
X704850Y337827D02*
X709749Y342726D01*
D15*
X709749Y342726D03*
D16*
X704850Y337827D02*
X704850Y55880D01*
X711200Y49530D02*
X711200Y25400D01*
D15*
X552450Y406948D03*
D16*
X547370Y412028D01*
X547370Y530860D01*
X562610Y546100D01*
X577850Y546100D01*
X709930Y57984D02*
X723900Y44014D01*
D15*
X721353Y342900D03*
D16*
X718091Y339638D02*
X718091Y339271D01*
X718091Y339638D02*
X721353Y342900D01*
X718091Y339271D02*
X709930Y331109D01*
X709930Y57984D01*
X723900Y44014D02*
X723900Y25400D01*
D15*
X541119Y401868D03*
D16*
X541119Y409039D01*
X542290Y410210D01*
X542290Y551180D02*
X562610Y571500D01*
X577850Y571500D01*
X542290Y551180D02*
X542290Y410210D01*
X715010Y60089D02*
X736600Y38499D01*
X715010Y324392D02*
X721724Y331106D01*
D15*
X721724Y331106D03*
D16*
X715010Y324392D02*
X715010Y60089D01*
X736600Y38499D02*
X736600Y25400D01*
X529406Y396056D02*
X529406Y405055D01*
X537210Y412859D01*
X537210Y551180D02*
X516890Y571500D01*
X501650Y571500D01*
X537210Y551180D02*
X537210Y412859D01*
D15*
X529406Y396056D03*
D16*
X720090Y62193D02*
X749300Y32983D01*
D15*
X733328Y331470D03*
D16*
X730066Y328208D02*
X730066Y327651D01*
X730066Y328208D02*
X733328Y331470D01*
X730066Y327651D02*
X720090Y317675D01*
X720090Y62193D01*
X749300Y32983D02*
X749300Y25400D01*
X517802Y391708D02*
X517802Y400962D01*
X532130Y530860D02*
X516890Y546100D01*
X501650Y546100D01*
X532130Y415290D02*
X517802Y400962D01*
X532130Y415290D02*
X532130Y530860D01*
D15*
X517802Y391708D03*
D16*
X894080Y41910D02*
X901700Y34290D01*
X806450Y41910D02*
X725170Y123190D01*
X806450Y41910D02*
X894080Y41910D01*
X725170Y304607D02*
X728432Y307869D01*
D15*
X728432Y307869D03*
D16*
X725170Y304607D02*
X725170Y123190D01*
X901700Y34290D02*
X901700Y25400D01*
D15*
X634330Y340341D03*
D16*
X629690Y329478D02*
X487636Y329478D01*
X472944Y344170D01*
X463189Y344170D01*
X448497Y358862D01*
X398568Y358862D02*
X370080Y387350D01*
X398568Y358862D02*
X448497Y358862D01*
X326465Y387350D02*
X301065Y412750D01*
X326465Y387350D02*
X370080Y387350D01*
X228637Y412750D02*
X208280Y433107D01*
X228637Y412750D02*
X301065Y412750D01*
X208280Y542838D02*
X205018Y546100D01*
D15*
X205018Y546100D03*
D16*
X208280Y542838D02*
X208280Y433107D01*
X629690Y329478D02*
X634330Y334119D01*
X634330Y340341D01*
X901700Y46990D02*
X914400Y34290D01*
X808554Y46990D02*
X730250Y125294D01*
X808554Y46990D02*
X901700Y46990D01*
X730250Y297554D02*
X740036Y307340D01*
D15*
X740036Y307340D03*
D16*
X730250Y297554D02*
X730250Y125294D01*
X914400Y34290D02*
X914400Y25400D01*
D15*
X622726Y338122D03*
D16*
X603856Y338122D01*
X600292Y334558D01*
X489740Y334558D01*
X475048Y349250D01*
X465293Y349250D01*
X450601Y363942D01*
X400673Y363942D02*
X372185Y392430D01*
X400673Y363942D02*
X450601Y363942D01*
X328569Y392430D02*
X303169Y417830D01*
X328569Y392430D02*
X372185Y392430D01*
X230742Y417830D02*
X213360Y435212D01*
X230742Y417830D02*
X303169Y417830D01*
X213360Y554990D02*
X229870Y571500D01*
X254000Y571500D01*
X213360Y554990D02*
X213360Y435212D01*
X909320Y52070D02*
X927100Y34290D01*
X810659Y52070D02*
X735330Y127399D01*
X810659Y52070D02*
X909320Y52070D01*
X735330Y290837D02*
X740229Y295736D01*
D15*
X740229Y295736D03*
D16*
X735330Y290837D02*
X735330Y127399D01*
X927100Y34290D02*
X927100Y25400D01*
D15*
X615664Y347470D03*
D16*
X606020Y347470D01*
X598188Y339638D01*
X491845Y339638D01*
X477153Y354330D01*
X467397Y354330D02*
X452705Y369022D01*
X467397Y354330D02*
X477153Y354330D01*
X402777Y369022D02*
X374289Y397510D01*
X402777Y369022D02*
X452705Y369022D01*
X330673Y397510D02*
X305273Y422910D01*
X330673Y397510D02*
X374289Y397510D01*
X232846Y422910D02*
X218440Y437316D01*
X232846Y422910D02*
X305273Y422910D01*
X218440Y547918D02*
X221702Y551180D01*
D15*
X221702Y551180D03*
D16*
X218440Y547918D02*
X218440Y437316D01*
X916940Y57150D02*
X939800Y34290D01*
X812763Y57150D02*
X740410Y129503D01*
X812763Y57150D02*
X916940Y57150D01*
D15*
X751833Y295910D03*
D16*
X748571Y292648D02*
X748571Y292281D01*
X748571Y292648D02*
X751833Y295910D01*
X748571Y292281D02*
X740410Y284119D01*
X740410Y129503D01*
X939800Y34290D02*
X939800Y25400D01*
D15*
X610584Y358800D03*
D16*
X610166Y358800D01*
X598102Y346736D01*
X513963Y346736D02*
X501289Y359410D01*
X469502Y359410D01*
X454810Y374102D01*
X513963Y346736D02*
X598102Y346736D01*
X404881Y374102D02*
X376393Y402590D01*
X404881Y374102D02*
X454810Y374102D01*
X376393Y402590D02*
X332777Y402590D01*
X307377Y427990D01*
X234950Y427990D01*
X223520Y439420D01*
X223520Y531234D02*
X226782Y534496D01*
D15*
X226782Y534496D03*
D16*
X223520Y531234D02*
X223520Y439420D01*
X579630Y87630D02*
X643890Y151890D01*
X544070Y87630D02*
X533910Y77470D01*
X544070Y87630D02*
X579630Y87630D01*
X533910Y77470D02*
X480060Y77470D01*
X424180Y64770D02*
X393700Y34290D01*
X457275Y64770D02*
X469975Y77470D01*
X480060Y77470D01*
X457275Y64770D02*
X424180Y64770D01*
X393700Y34290D02*
X393700Y25400D01*
X643890Y408903D02*
X657897Y422910D01*
X643890Y408903D02*
X643890Y151890D01*
X736600Y422910D02*
X748030Y434340D01*
X736600Y422910D02*
X657897Y422910D01*
X748030Y530860D02*
X732790Y546100D01*
X717550Y546100D01*
X748030Y530860D02*
X748030Y434340D01*
X648970Y149786D02*
X581735Y82550D01*
X546175Y82550D02*
X536015Y72390D01*
X546175Y82550D02*
X581735Y82550D01*
X431800Y59690D02*
X406400Y34290D01*
X431800Y59690D02*
X459379Y59690D01*
X472079Y72390D01*
X536015Y72390D01*
X406400Y34290D02*
X406400Y25400D01*
X648970Y406799D02*
X660002Y417830D01*
X648970Y406799D02*
X648970Y149786D01*
X738704Y417830D02*
X753110Y432236D01*
X738704Y417830D02*
X660002Y417830D01*
X753110Y551180D02*
X732790Y571500D01*
X717550Y571500D01*
X753110Y551180D02*
X753110Y432236D01*
X654050Y147681D02*
X583839Y77470D01*
X548279Y77470D02*
X538119Y67310D01*
X548279Y77470D02*
X583839Y77470D01*
X538119Y67310D02*
X488950Y67310D01*
X439420Y54610D02*
X419100Y34290D01*
X439420Y54610D02*
X461483Y54610D01*
X474183Y67310D02*
X488950Y67310D01*
X474183Y67310D02*
X461483Y54610D01*
X419100Y34290D02*
X419100Y25400D01*
X654050Y404694D02*
X662106Y412750D01*
X654050Y404694D02*
X654050Y147681D01*
X740809Y412750D02*
X758190Y430132D01*
X740809Y412750D02*
X662106Y412750D01*
X758190Y551180D02*
X778510Y571500D01*
X793750Y571500D01*
X758190Y551180D02*
X758190Y430132D01*
X659130Y129067D02*
X602453Y72390D01*
X659130Y129067D02*
X659130Y402590D01*
X550383Y72390D02*
X540223Y62230D01*
X550383Y72390D02*
X602453Y72390D01*
X447040Y49530D02*
X431800Y34290D01*
X447040Y49530D02*
X463587Y49530D01*
X476287Y62230D01*
X540223Y62230D01*
X431800Y34290D02*
X431800Y25400D01*
X659130Y402590D02*
X664210Y407670D01*
X742913Y407670D02*
X763270Y428027D01*
X742913Y407670D02*
X664210Y407670D01*
X763270Y530860D02*
X778510Y546100D01*
X793750Y546100D01*
X763270Y530860D02*
X763270Y428027D01*
X664210Y126963D02*
X604557Y67310D01*
X552487Y67310D02*
X542327Y57150D01*
X552487Y67310D02*
X604557Y67310D01*
X542327Y57150D02*
X488950Y57150D01*
X454660Y44450D02*
X444500Y34290D01*
X454660Y44450D02*
X465692Y44450D01*
X478392Y57150D01*
X488950Y57150D01*
X444500Y34290D02*
X444500Y25400D01*
X664210Y386447D02*
X668394Y390631D01*
D15*
X668394Y390631D03*
D16*
X664210Y386447D02*
X664210Y126963D01*
X669290Y124859D02*
X606662Y62230D01*
X554592Y62230D02*
X544432Y52070D01*
X554592Y62230D02*
X606662Y62230D01*
X462280Y39370D02*
X457200Y34290D01*
X462280Y39370D02*
X467796Y39370D01*
X480496Y52070D01*
X544432Y52070D01*
X457200Y34290D02*
X457200Y25400D01*
D15*
X678554Y398425D03*
D16*
X676736Y391527D02*
X676736Y387176D01*
X676736Y391527D02*
X678554Y393345D01*
X678554Y398425D01*
X669290Y379730D02*
X669290Y124859D01*
X669290Y379730D02*
X676736Y387176D01*
X674370Y122754D02*
X608766Y57150D01*
X556696Y57150D02*
X546536Y46990D01*
X556696Y57150D02*
X584200Y57150D01*
X608766Y57150D01*
X482600Y46990D02*
X469900Y34290D01*
X482600Y46990D02*
X546536Y46990D01*
X469900Y34290D02*
X469900Y25400D01*
X674370Y377364D02*
X685078Y388072D01*
D15*
X685078Y388072D03*
D16*
X674370Y377364D02*
X674370Y122754D01*
X679450Y120650D02*
X610870Y52070D01*
X490220Y41910D02*
X482600Y34290D01*
X490220Y41910D02*
X548640Y41910D01*
X558800Y52070D01*
X610870Y52070D01*
X679450Y120650D02*
X679450Y372147D01*
X482600Y34290D02*
X482600Y25400D01*
X679450Y372147D02*
X687033Y379730D01*
X693420Y379730D01*
D15*
X693420Y379730D03*
D16*
X257810Y38100D02*
X254000Y34290D01*
X390326Y38100D02*
X436046Y83820D01*
X390326Y38100D02*
X257810Y38100D01*
X436046Y83820D02*
X533076Y83820D01*
D15*
X630468Y204470D03*
D16*
X623807Y174551D02*
X533076Y83820D01*
X623807Y197809D02*
X630468Y204470D01*
X623807Y197809D02*
X623807Y174551D01*
X254000Y34290D02*
X254000Y25400D01*
X951230Y546100D02*
X963930Y533400D01*
X951230Y546100D02*
X933450Y546100D01*
X993140Y390724D02*
X993140Y355600D01*
X988060Y350520D01*
X963930Y419934D02*
X963930Y533400D01*
X963930Y419934D02*
X993140Y390724D01*
D15*
X895350Y350520D03*
D16*
X988060Y350520D01*
X250190Y43180D02*
X241300Y34290D01*
X388222Y43180D02*
X433942Y88900D01*
X388222Y43180D02*
X250190Y43180D01*
X433942Y88900D02*
X530972Y88900D01*
D15*
X621989Y212401D03*
D16*
X621989Y207321D02*
X618727Y204059D01*
X621989Y207321D02*
X621989Y212401D01*
X618727Y176655D02*
X530972Y88900D01*
X618727Y176655D02*
X618727Y204059D01*
X241300Y34290D02*
X241300Y25400D01*
X955040Y571500D02*
X969010Y557530D01*
X955040Y571500D02*
X933450Y571500D01*
X998220Y392829D02*
X998220Y353496D01*
X990164Y345440D01*
X969010Y422039D02*
X969010Y557530D01*
X969010Y422039D02*
X998220Y392829D01*
X916392Y345440D02*
X913130Y342178D01*
X908050Y342178D01*
D15*
X908050Y342178D03*
D16*
X916392Y345440D02*
X990164Y345440D01*
X242570Y48260D02*
X228600Y34290D01*
X386117Y48260D02*
X431837Y93980D01*
X386117Y48260D02*
X242570Y48260D01*
X431837Y93980D02*
X528868Y93980D01*
X613647Y178759D01*
D15*
X628909Y221892D03*
D16*
X618533Y220743D02*
X613647Y215857D01*
X627760Y220743D02*
X628909Y221892D01*
X627760Y220743D02*
X618533Y220743D01*
X613647Y215857D02*
X613647Y178759D01*
X228600Y34290D02*
X228600Y25400D01*
X974090Y557530D02*
X988060Y571500D01*
X1009650Y571500D01*
X974090Y424143D02*
X1003300Y394933D01*
X1003300Y351392D02*
X992269Y340360D01*
X974090Y424143D02*
X974090Y557530D01*
X1003300Y394933D02*
X1003300Y351392D01*
X929092Y340360D02*
X925830Y337098D01*
X920750Y337098D01*
D15*
X920750Y337098D03*
D16*
X929092Y340360D02*
X992269Y340360D01*
X234950Y53340D02*
X215900Y34290D01*
X384013Y53340D02*
X429733Y99060D01*
X384013Y53340D02*
X234950Y53340D01*
X429733Y99060D02*
X526763Y99060D01*
X608567Y180864D01*
D15*
X619691Y229085D03*
D16*
X608567Y217961D01*
X608567Y180864D01*
X215900Y34290D02*
X215900Y25400D01*
X979170Y533400D02*
X991870Y546100D01*
X1009650Y546100D01*
X979170Y426247D02*
X1008380Y397037D01*
X1008380Y349287D01*
X994373Y335280D01*
X979170Y426247D02*
X979170Y533400D01*
X941792Y335280D02*
X938530Y332018D01*
X933450Y332018D01*
D15*
X933450Y332018D03*
D16*
X941792Y335280D02*
X994373Y335280D01*
X214630Y58420D02*
X190500Y34290D01*
X381909Y58420D02*
X427629Y104140D01*
X327660Y58420D02*
X214630Y58420D01*
X327660Y58420D02*
X381909Y58420D01*
X427629Y104140D02*
X524659Y104140D01*
X603487Y182968D01*
D15*
X630468Y238576D03*
D16*
X617385Y238576D02*
X603487Y224678D01*
X617385Y238576D02*
X630468Y238576D01*
X603487Y224678D02*
X603487Y182968D01*
X190500Y34290D02*
X190500Y25400D01*
X847090Y546100D02*
X857250Y535940D01*
X847090Y546100D02*
X825500Y546100D01*
X857250Y429297D02*
X890307Y396240D01*
X942340Y396240D02*
X946150Y392430D01*
X946150Y360680D01*
D15*
X946150Y360680D03*
D16*
X857250Y429297D02*
X857250Y535940D01*
X890307Y396240D02*
X942340Y396240D01*
X210820Y96520D02*
X203200Y88900D01*
X203200Y59690D02*
X177800Y34290D01*
X203200Y59690D02*
X203200Y88900D01*
X240105Y96520D02*
X252805Y109220D01*
X240105Y96520D02*
X210820Y96520D01*
X252805Y109220D02*
X522555Y109220D01*
X598407Y185072D01*
D15*
X618490Y246918D03*
D16*
X598407Y226835D01*
X598407Y185072D01*
X177800Y34290D02*
X177800Y25400D01*
X850900Y571500D02*
X862330Y560070D01*
X850900Y571500D02*
X825500Y571500D01*
X862330Y431402D02*
X892412Y401320D01*
X949960Y401320D02*
X958850Y392430D01*
X958850Y360680D01*
D15*
X958850Y360680D03*
D16*
X862330Y431402D02*
X862330Y560070D01*
X892412Y401320D02*
X949960Y401320D01*
X177800Y46990D02*
X165100Y34290D01*
X177800Y46990D02*
X177800Y88900D01*
X190500Y101600D01*
X238000Y101600D02*
X250700Y114300D01*
X238000Y101600D02*
X190500Y101600D01*
X250700Y114300D02*
X520451Y114300D01*
X593327Y187176D01*
D15*
X628170Y255260D03*
D16*
X615035Y255260D01*
X593327Y233552D01*
X593327Y187176D01*
X165100Y34290D02*
X165100Y25400D01*
X867410Y560070D02*
X878840Y571500D01*
X901700Y571500D01*
X867410Y433506D02*
X894516Y406400D01*
X957580Y406400D02*
X971550Y392430D01*
X971550Y360680D01*
D15*
X971550Y360680D03*
D16*
X867410Y433506D02*
X867410Y560070D01*
X894516Y406400D02*
X957580Y406400D01*
X168910Y106680D02*
X152400Y90170D01*
X235896Y106680D02*
X248596Y119380D01*
X235896Y106680D02*
X168910Y106680D01*
X248596Y119380D02*
X518346Y119380D01*
X588247Y189281D01*
D15*
X619760Y263602D03*
D16*
X612930Y260340D02*
X588247Y235657D01*
X612930Y260340D02*
X616498Y260340D01*
X619760Y263602D01*
X588247Y235657D02*
X588247Y189281D01*
X152400Y90170D02*
X152400Y25400D01*
X872490Y535940D02*
X882650Y546100D01*
X901700Y546100D01*
X872490Y535940D02*
X872490Y435610D01*
X896620Y411480D01*
X965200Y411480D02*
X984250Y392430D01*
X984250Y360680D01*
D15*
X984250Y360680D03*
D16*
X965200Y411480D02*
X896620Y411480D01*
D15*
X1113790Y323850D03*
D16*
X1054100Y34290D02*
X1054100Y25400D01*
X1054100Y34290D02*
X1083310Y63500D01*
X1083310Y293370D02*
X1113790Y323850D01*
X1083310Y293370D02*
X1083310Y63500D01*
D15*
X1113790Y303530D03*
D16*
X1066800Y34290D02*
X1066800Y25400D01*
X1066800Y34290D02*
X1088390Y55880D01*
X1088390Y278130D02*
X1113790Y303530D01*
X1088390Y278130D02*
X1088390Y55880D01*
D15*
X1113790Y283210D03*
D16*
X1079500Y34290D02*
X1079500Y25400D01*
X1079500Y34290D02*
X1093470Y48260D01*
X1093470Y262890D02*
X1113790Y283210D01*
X1093470Y262890D02*
X1093470Y48260D01*
D15*
X1113790Y262890D03*
D16*
X1104900Y33020D02*
X1104900Y25400D01*
X1104900Y33020D02*
X1098550Y39370D01*
X1098550Y247650D01*
X1113790Y262890D01*
D15*
X1113790Y242570D03*
X627740Y48803D03*
D16*
X660943Y48803D01*
X674370Y62230D02*
X674370Y103592D01*
D15*
X674370Y103592D03*
X1106892Y103592D03*
D16*
X1106892Y109220D01*
X1103630Y112482D01*
X1103630Y232410D02*
X1113790Y242570D01*
X674370Y62230D02*
X660943Y48803D01*
X1103630Y112482D02*
X1103630Y232410D01*
D15*
X933450Y261620D03*
D16*
X933450Y220830D01*
D15*
X933450Y220830D03*
X958850Y261620D03*
X958850Y129540D03*
D16*
X958850Y261620D01*
D15*
X971550Y261620D03*
X971550Y129540D03*
D16*
X971550Y261620D01*
D15*
X984250Y261620D03*
D16*
X984250Y226060D01*
D15*
X984250Y129540D03*
D16*
X984250Y226060D01*
M02*
