M48
;GenerationSoftware,Autodesk,EAGLE,9.6.1*%
;CreationDate,2021-05-12T19:33:21Z*%
FMAT,2
ICI,OFF
METRIC,TZ,000.000
T5C0.400
T4C0.500
T3C0.800
T2C0.813
T1C3.200
%
G90
M71
T1
X3380Y10160
X114730Y10160
T2
X11430Y7620
X13970Y7620
X26670Y7620
X29210Y7620
X16510Y7620
X19050Y7620
X24130Y7620
X21590Y7620
X29210Y15240
X26670Y15240
X24130Y15240
X21590Y15240
X19050Y15240
X16510Y15240
X13970Y15240
X11430Y15240
T3
X90170Y57150
X90170Y54610
X90170Y49530
X90170Y44450
X82550Y44450
X82550Y49530
X82550Y52070
X82550Y54610
X82550Y57150
X82550Y59690
X79375Y52070
X79375Y46990
X71755Y46990
X79375Y59690
X79375Y57150
X79375Y54610
X79375Y49530
X79375Y44450
X71755Y44450
X71755Y49530
X71755Y52070
X71755Y54610
X71755Y57150
X71755Y59690
X68580Y52070
X68580Y46990
X60960Y46990
X68580Y59690
X68580Y57150
X68580Y54610
X68580Y49530
X68580Y44450
X60960Y44450
X60960Y49530
X60960Y52070
X60960Y54610
X60960Y57150
X60960Y59690
X57785Y52070
X57785Y46990
X50165Y46990
X57785Y59690
X57785Y57150
X57785Y54610
X57785Y49530
X57785Y44450
X50165Y44450
X100965Y52070
X50165Y52070
X50165Y54610
X50165Y57150
X50165Y59690
X46990Y52070
X46990Y46990
X39370Y46990
X46990Y59690
X46990Y57150
X46990Y54610
X46990Y49530
X46990Y44450
X39370Y44450
X39370Y49530
X39370Y52070
X39370Y54610
X39370Y57150
X39370Y59690
X36195Y52070
X36195Y46990
X28575Y46990
X36195Y59690
X36195Y57150
X36195Y54610
X36195Y49530
X36195Y44450
X28575Y44450
X28575Y49530
X28575Y52070
X28575Y54610
X28575Y57150
X28575Y59690
X25400Y52070
X25400Y46990
X17780Y46990
X25400Y59690
X25400Y57150
X25400Y54610
X25400Y49530
X25400Y44450
X17780Y44450
X17780Y49530
X17780Y52070
X17780Y54610
X17780Y57150
X17780Y59690
X90170Y59690
X82550Y46990
X90170Y46990
X90170Y52070
X93345Y59690
X93345Y57150
X93345Y54610
X93345Y52070
X93345Y49530
X93345Y44450
X100965Y44450
X100965Y49530
X100965Y54610
X100965Y57150
X100965Y59690
X93345Y46990
X100965Y46990
X50165Y49530
T4
X26035Y26162
X32004Y24765
X42037Y24765
X99695Y26162
X36510Y15113
X40447Y16637
X48260Y37846
X36449Y36322
X20574Y58166
X31369Y58166
X42164Y58166
X52959Y58166
X63754Y58166
X74549Y58166
X85344Y58166
X96139Y58166
X11938Y34544
X85598Y34544
X44196Y7421
X38608Y7493
X36394Y6858
X87122Y38049
X13462Y38049
X34610Y20447
X34610Y12827
X38420Y12827
X42230Y12827
X38481Y16637
X39878Y34798
X50038Y34798
T5
X8890Y2540
X10160Y2540
X11430Y2540
X12700Y2540
X13970Y2540
X15240Y2540
X16510Y2540
X17780Y2540
X19050Y2540
X20320Y2540
X21590Y2540
X22860Y2540
X24130Y2540
X25400Y2540
X26670Y2540
X27940Y2540
X29210Y2540
X30480Y2540
X31750Y2540
X33020Y2540
X34290Y2540
X35560Y2540
X36830Y2540
X61969Y22909
X39370Y2540
X40640Y2540
X41910Y2540
X43180Y2540
X44450Y2540
X45720Y2540
X46990Y2540
X48260Y2540
X49530Y2540
X50800Y2540
X52070Y2540
X53340Y2540
X54610Y2540
X55880Y2540
X62230Y2540
X63500Y2540
X64770Y2540
X66040Y2540
X67310Y2540
X68580Y2540
X69850Y2540
X71120Y2540
X72390Y2540
X73660Y2540
X74930Y2540
X76200Y2540
X77470Y2540
X78740Y2540
X80010Y2540
X81280Y2540
X82550Y2540
X83820Y2540
X85090Y2540
X86360Y2540
X87630Y2540
X88900Y2540
X90170Y2540
X91440Y2540
X92710Y2540
X93980Y2540
X95250Y2540
X96520Y2540
X97790Y2540
X99060Y2540
X100330Y2540
X101600Y2540
X102870Y2540
X104140Y2540
X105410Y2540
X106680Y2540
X107950Y2540
X109220Y2540
X110490Y2540
X111760Y2540
X90805Y34218
X62199Y21240
X89535Y35052
X63047Y20447
X69342Y37973
X68508Y38807
X67855Y39843
X66839Y39063
X22678Y53450
X61058Y35880
X75183Y29591
X22170Y55118
X61566Y34747
X74023Y29574
X62273Y33812
X74004Y30734
X20502Y54610
X63433Y34034
X72843Y30787
X51780Y39171
X73333Y33147
X52941Y39606
X72172Y33111
X54112Y40187
X72135Y34290
X55245Y40695
X70975Y34273
X41916Y40568
X70956Y35433
X43077Y40750
X69795Y35506
X43883Y41584
X69940Y36830
X44704Y42418
X68779Y36869
X54356Y37629
X54356Y31242
X45720Y29845
X53086Y37629
X53086Y31242
X41783Y28575
X33473Y53450
X57912Y37176
X77561Y27051
X32965Y55118
X59072Y37176
X76400Y27161
X59254Y36016
X76381Y28321
X31297Y54610
X60224Y36687
X75220Y28412
X94615Y12954
X94615Y26162
X92075Y21717
X92075Y26162
X90805Y21717
X90805Y26162
X89535Y21717
X89535Y26162
X15875Y21209
X15875Y26162
X17145Y21844
X17145Y26162
X18415Y21844
X18415Y26162
X19685Y21844
X19685Y26162
X20955Y21844
X20955Y26162
X22225Y21844
X22225Y26162
X23495Y21844
X23495Y26162
X24765Y21209
X24765Y26162
X35560Y31115
X35560Y32385
X37973Y32385
X37736Y21082
X35560Y33655
X36576Y12827
X45705Y33386
X40386Y12827
X47516Y32403
X44196Y12827
X31115Y10088
X33356Y7411
X32320Y10088
X37448Y7493
X32330Y6676
X34544Y7493
X7620Y2540
X6350Y2540
X62891Y22189
X92075Y33710
X98425Y12954
X98425Y26162
X97155Y12954
X97155Y26162
X95885Y12954
X88519Y23380
X14986Y23380
X95885Y26162
X93345Y22083
X93345Y26162
X50165Y12772
X59890Y8073
X102997Y9525
X114869Y20574
X110689Y10359
X67437Y10359
X62774Y4880
X111379Y24257
X111379Y26289
X111379Y28321
X111379Y30353
X111379Y32385
X98425Y36068
X61976Y26360
X97155Y36068
X62817Y25526
X95885Y36068
X61849Y24692
X94615Y36068
X63047Y23858
X93345Y33202
X38100Y2540
M30