G04 EAGLE Gerber RS-274X export*
G75*
%MOMM*%
%FSLAX34Y34*%
%LPD*%
%INSoldermask Top*%
%IPPOS*%
%AMOC8*
5,1,8,0,0,1.08239X$1,22.5*%
G01*
%ADD10R,0.893200X1.193200*%
%ADD11R,0.863600X2.235200*%
%ADD12R,2.235200X0.863600*%
%ADD13R,1.503200X1.703200*%
%ADD14R,0.703200X1.003200*%
%ADD15C,3.403200*%
%ADD16C,1.244600*%
%ADD17R,116.110000X3.100000*%
%ADD18C,1.524000*%
%ADD19R,1.600200X2.311400*%
%ADD20C,1.511200*%
%ADD21R,1.703200X1.503200*%


D10*
X346100Y164900D03*
X355600Y164900D03*
X365100Y164900D03*
X365100Y190800D03*
X346100Y190800D03*
D11*
X882650Y279908D03*
X895350Y279908D03*
X908050Y279908D03*
X920750Y279908D03*
X933450Y279908D03*
X946150Y279908D03*
X958850Y279908D03*
X971550Y279908D03*
X971550Y380492D03*
X958850Y380492D03*
X946150Y380492D03*
X933450Y380492D03*
X920750Y380492D03*
X908050Y380492D03*
X895350Y380492D03*
X882650Y380492D03*
X984250Y279908D03*
X996950Y279908D03*
X984250Y380492D03*
X996950Y380492D03*
D10*
X384200Y88700D03*
X393700Y88700D03*
X403200Y88700D03*
X403200Y114600D03*
X384200Y114600D03*
X346100Y88700D03*
X355600Y88700D03*
X365100Y88700D03*
X365100Y114600D03*
X346100Y114600D03*
X422300Y88700D03*
X431800Y88700D03*
X441300Y88700D03*
X441300Y114600D03*
X422300Y114600D03*
D12*
X337566Y336550D03*
X399034Y336550D03*
X337566Y323850D03*
X337566Y311150D03*
X399034Y323850D03*
X399034Y311150D03*
X337566Y298450D03*
X399034Y298450D03*
X337566Y285750D03*
X399034Y285750D03*
X337566Y273050D03*
X337566Y260350D03*
X399034Y273050D03*
X399034Y260350D03*
X337566Y247650D03*
X399034Y247650D03*
X439166Y336550D03*
X500634Y336550D03*
X439166Y323850D03*
X439166Y311150D03*
X500634Y323850D03*
X500634Y311150D03*
X439166Y298450D03*
X500634Y298450D03*
X439166Y285750D03*
X500634Y285750D03*
X439166Y273050D03*
X439166Y260350D03*
X500634Y273050D03*
X500634Y260350D03*
X439166Y247650D03*
X500634Y247650D03*
D11*
X146050Y279908D03*
X158750Y279908D03*
X171450Y279908D03*
X184150Y279908D03*
X196850Y279908D03*
X209550Y279908D03*
X222250Y279908D03*
X234950Y279908D03*
X234950Y380492D03*
X222250Y380492D03*
X209550Y380492D03*
X196850Y380492D03*
X184150Y380492D03*
X171450Y380492D03*
X158750Y380492D03*
X146050Y380492D03*
X247650Y279908D03*
X260350Y279908D03*
X247650Y380492D03*
X260350Y380492D03*
D13*
X1148690Y323850D03*
X1129690Y323850D03*
D14*
X165800Y233800D03*
X173800Y233800D03*
X181800Y233800D03*
X189800Y233800D03*
X189800Y248800D03*
X181800Y248800D03*
X173800Y248800D03*
X165800Y248800D03*
X216600Y233800D03*
X224600Y233800D03*
X232600Y233800D03*
X240600Y233800D03*
X240600Y248800D03*
X232600Y248800D03*
X224600Y248800D03*
X216600Y248800D03*
X902400Y233800D03*
X910400Y233800D03*
X918400Y233800D03*
X926400Y233800D03*
X926400Y248800D03*
X918400Y248800D03*
X910400Y248800D03*
X902400Y248800D03*
X953200Y233800D03*
X961200Y233800D03*
X969200Y233800D03*
X977200Y233800D03*
X977200Y248800D03*
X969200Y248800D03*
X961200Y248800D03*
X953200Y248800D03*
D15*
X33800Y101600D03*
X1147300Y101600D03*
D16*
X63500Y25400D02*
X63500Y14986D01*
X76200Y14986D02*
X76200Y25400D01*
X88900Y25400D02*
X88900Y14986D01*
X101600Y14986D02*
X101600Y25400D01*
X114300Y25400D02*
X114300Y14986D01*
X127000Y14986D02*
X127000Y25400D01*
X139700Y25400D02*
X139700Y14986D01*
X152400Y14986D02*
X152400Y25400D01*
X165100Y25400D02*
X165100Y14986D01*
X177800Y14986D02*
X177800Y25400D01*
X190500Y25400D02*
X190500Y14986D01*
X203200Y14986D02*
X203200Y25400D01*
X215900Y25400D02*
X215900Y14986D01*
X228600Y14986D02*
X228600Y25400D01*
X241300Y25400D02*
X241300Y14986D01*
X254000Y14986D02*
X254000Y25400D01*
X266700Y25400D02*
X266700Y14986D01*
X279400Y14986D02*
X279400Y25400D01*
X292100Y25400D02*
X292100Y14986D01*
X304800Y14986D02*
X304800Y25400D01*
X317500Y25400D02*
X317500Y14986D01*
X330200Y14986D02*
X330200Y25400D01*
X342900Y25400D02*
X342900Y14986D01*
X355600Y14986D02*
X355600Y25400D01*
X368300Y25400D02*
X368300Y14986D01*
X381000Y14986D02*
X381000Y25400D01*
X393700Y25400D02*
X393700Y14986D01*
X406400Y14986D02*
X406400Y25400D01*
X419100Y25400D02*
X419100Y14986D01*
X431800Y14986D02*
X431800Y25400D01*
X444500Y25400D02*
X444500Y14986D01*
X457200Y14986D02*
X457200Y25400D01*
X469900Y25400D02*
X469900Y14986D01*
X482600Y14986D02*
X482600Y25400D01*
X495300Y25400D02*
X495300Y14986D01*
X508000Y14986D02*
X508000Y25400D01*
X520700Y25400D02*
X520700Y14986D01*
X533400Y14986D02*
X533400Y25400D01*
X546100Y25400D02*
X546100Y14986D01*
X558800Y14986D02*
X558800Y25400D01*
X622300Y25400D02*
X622300Y14986D01*
X635000Y14986D02*
X635000Y25400D01*
X647700Y25400D02*
X647700Y14986D01*
X660400Y14986D02*
X660400Y25400D01*
X673100Y25400D02*
X673100Y14986D01*
X685800Y14986D02*
X685800Y25400D01*
X698500Y25400D02*
X698500Y14986D01*
X711200Y14986D02*
X711200Y25400D01*
X723900Y25400D02*
X723900Y14986D01*
X736600Y14986D02*
X736600Y25400D01*
X749300Y25400D02*
X749300Y14986D01*
X762000Y14986D02*
X762000Y25400D01*
X774700Y25400D02*
X774700Y14986D01*
X787400Y14986D02*
X787400Y25400D01*
X800100Y25400D02*
X800100Y14986D01*
X812800Y14986D02*
X812800Y25400D01*
X825500Y25400D02*
X825500Y14986D01*
X838200Y14986D02*
X838200Y25400D01*
X850900Y25400D02*
X850900Y14986D01*
X863600Y14986D02*
X863600Y25400D01*
X876300Y25400D02*
X876300Y14986D01*
X889000Y14986D02*
X889000Y25400D01*
X901700Y25400D02*
X901700Y14986D01*
X914400Y14986D02*
X914400Y25400D01*
X927100Y25400D02*
X927100Y14986D01*
X939800Y14986D02*
X939800Y25400D01*
X952500Y25400D02*
X952500Y14986D01*
X965200Y14986D02*
X965200Y25400D01*
X977900Y25400D02*
X977900Y14986D01*
X990600Y14986D02*
X990600Y25400D01*
X1003300Y25400D02*
X1003300Y14986D01*
X1016000Y14986D02*
X1016000Y25400D01*
X1028700Y25400D02*
X1028700Y14986D01*
X1041400Y14986D02*
X1041400Y25400D01*
X1054100Y25400D02*
X1054100Y14986D01*
X1066800Y14986D02*
X1066800Y25400D01*
X1079500Y25400D02*
X1079500Y14986D01*
X1092200Y14986D02*
X1092200Y25400D01*
X1104900Y25400D02*
X1104900Y14986D01*
X1117600Y14986D02*
X1117600Y25400D01*
D17*
X600550Y15500D03*
D18*
X114300Y69596D02*
X114300Y82804D01*
X139700Y82804D02*
X139700Y69596D01*
X266700Y69596D02*
X266700Y82804D01*
X292100Y82804D02*
X292100Y69596D01*
X165100Y69596D02*
X165100Y82804D01*
X190500Y82804D02*
X190500Y69596D01*
X241300Y69596D02*
X241300Y82804D01*
X215900Y82804D02*
X215900Y69596D01*
X292100Y145796D02*
X292100Y159004D01*
X266700Y159004D02*
X266700Y145796D01*
X241300Y145796D02*
X241300Y159004D01*
X215900Y159004D02*
X215900Y145796D01*
X190500Y145796D02*
X190500Y159004D01*
X165100Y159004D02*
X165100Y145796D01*
X139700Y145796D02*
X139700Y159004D01*
X114300Y159004D02*
X114300Y145796D01*
D19*
X501500Y74100D03*
X546100Y74100D03*
X501500Y165100D03*
X546100Y165100D03*
X577700Y74100D03*
X622300Y74100D03*
X577700Y165100D03*
X622300Y165100D03*
X653900Y74100D03*
X698500Y74100D03*
X653900Y165100D03*
X698500Y165100D03*
X730100Y74100D03*
X774700Y74100D03*
X730100Y165100D03*
X774700Y165100D03*
X806300Y74100D03*
X850900Y74100D03*
X806300Y165100D03*
X850900Y165100D03*
X882500Y74100D03*
X927100Y74100D03*
X882500Y165100D03*
X927100Y165100D03*
X958700Y74100D03*
X1003300Y74100D03*
X958700Y165100D03*
X1003300Y165100D03*
X1034900Y74100D03*
X1079500Y74100D03*
X1034900Y165100D03*
X1079500Y165100D03*
D20*
X184340Y596900D02*
X171260Y596900D01*
X171260Y571500D02*
X184340Y571500D01*
X184340Y546100D02*
X171260Y546100D01*
X171260Y520700D02*
X184340Y520700D01*
X184340Y495300D02*
X171260Y495300D01*
X171260Y444500D02*
X184340Y444500D01*
X247460Y444500D02*
X260540Y444500D01*
X260540Y495300D02*
X247460Y495300D01*
X247460Y546100D02*
X260540Y546100D01*
X260540Y571500D02*
X247460Y571500D01*
X247460Y596900D02*
X260540Y596900D01*
X184340Y469900D02*
X171260Y469900D01*
X247460Y469900D02*
X260540Y469900D01*
X260540Y520700D02*
X247460Y520700D01*
X279210Y596900D02*
X292290Y596900D01*
X292290Y571500D02*
X279210Y571500D01*
X279210Y546100D02*
X292290Y546100D01*
X292290Y520700D02*
X279210Y520700D01*
X279210Y495300D02*
X292290Y495300D01*
X292290Y444500D02*
X279210Y444500D01*
X355410Y444500D02*
X368490Y444500D01*
X368490Y495300D02*
X355410Y495300D01*
X355410Y546100D02*
X368490Y546100D01*
X368490Y571500D02*
X355410Y571500D01*
X355410Y596900D02*
X368490Y596900D01*
X292290Y469900D02*
X279210Y469900D01*
X355410Y469900D02*
X368490Y469900D01*
X368490Y520700D02*
X355410Y520700D01*
X387160Y596900D02*
X400240Y596900D01*
X400240Y571500D02*
X387160Y571500D01*
X387160Y546100D02*
X400240Y546100D01*
X400240Y520700D02*
X387160Y520700D01*
X387160Y495300D02*
X400240Y495300D01*
X400240Y444500D02*
X387160Y444500D01*
X463360Y444500D02*
X476440Y444500D01*
X476440Y495300D02*
X463360Y495300D01*
X463360Y546100D02*
X476440Y546100D01*
X476440Y571500D02*
X463360Y571500D01*
X463360Y596900D02*
X476440Y596900D01*
X400240Y469900D02*
X387160Y469900D01*
X463360Y469900D02*
X476440Y469900D01*
X476440Y520700D02*
X463360Y520700D01*
X495110Y596900D02*
X508190Y596900D01*
X508190Y571500D02*
X495110Y571500D01*
X495110Y546100D02*
X508190Y546100D01*
X508190Y520700D02*
X495110Y520700D01*
X495110Y495300D02*
X508190Y495300D01*
X508190Y444500D02*
X495110Y444500D01*
X571310Y444500D02*
X584390Y444500D01*
X584390Y495300D02*
X571310Y495300D01*
X571310Y546100D02*
X584390Y546100D01*
X584390Y571500D02*
X571310Y571500D01*
X571310Y596900D02*
X584390Y596900D01*
X508190Y469900D02*
X495110Y469900D01*
X571310Y469900D02*
X584390Y469900D01*
X584390Y520700D02*
X571310Y520700D01*
X603060Y596900D02*
X616140Y596900D01*
X616140Y571500D02*
X603060Y571500D01*
X603060Y546100D02*
X616140Y546100D01*
X616140Y520700D02*
X603060Y520700D01*
X603060Y495300D02*
X616140Y495300D01*
X616140Y444500D02*
X603060Y444500D01*
X679260Y444500D02*
X692340Y444500D01*
X692340Y495300D02*
X679260Y495300D01*
X679260Y546100D02*
X692340Y546100D01*
X692340Y571500D02*
X679260Y571500D01*
X679260Y596900D02*
X692340Y596900D01*
X616140Y469900D02*
X603060Y469900D01*
X679260Y469900D02*
X692340Y469900D01*
X692340Y520700D02*
X679260Y520700D01*
X711010Y596900D02*
X724090Y596900D01*
X724090Y571500D02*
X711010Y571500D01*
X711010Y546100D02*
X724090Y546100D01*
X724090Y520700D02*
X711010Y520700D01*
X711010Y495300D02*
X724090Y495300D01*
X724090Y444500D02*
X711010Y444500D01*
X787210Y444500D02*
X800290Y444500D01*
X800290Y495300D02*
X787210Y495300D01*
X787210Y546100D02*
X800290Y546100D01*
X800290Y571500D02*
X787210Y571500D01*
X787210Y596900D02*
X800290Y596900D01*
X724090Y469900D02*
X711010Y469900D01*
X787210Y469900D02*
X800290Y469900D01*
X800290Y520700D02*
X787210Y520700D01*
X818960Y596900D02*
X832040Y596900D01*
X832040Y571500D02*
X818960Y571500D01*
X818960Y546100D02*
X832040Y546100D01*
X832040Y520700D02*
X818960Y520700D01*
X818960Y495300D02*
X832040Y495300D01*
X832040Y444500D02*
X818960Y444500D01*
X895160Y444500D02*
X908240Y444500D01*
X908240Y495300D02*
X895160Y495300D01*
X895160Y546100D02*
X908240Y546100D01*
X908240Y571500D02*
X895160Y571500D01*
X895160Y596900D02*
X908240Y596900D01*
X832040Y469900D02*
X818960Y469900D01*
X895160Y469900D02*
X908240Y469900D01*
X908240Y520700D02*
X895160Y520700D01*
X926910Y596900D02*
X939990Y596900D01*
X939990Y571500D02*
X926910Y571500D01*
X926910Y546100D02*
X939990Y546100D01*
X939990Y520700D02*
X926910Y520700D01*
X926910Y495300D02*
X939990Y495300D01*
X939990Y444500D02*
X926910Y444500D01*
X1003110Y444500D02*
X1016190Y444500D01*
X1016190Y495300D02*
X1003110Y495300D01*
X1003110Y546100D02*
X1016190Y546100D01*
X1016190Y571500D02*
X1003110Y571500D01*
X1003110Y596900D02*
X1016190Y596900D01*
X939990Y469900D02*
X926910Y469900D01*
X1003110Y469900D02*
X1016190Y469900D01*
X1016190Y520700D02*
X1003110Y520700D01*
D13*
X385470Y151130D03*
X404470Y151130D03*
X399390Y363220D03*
X380390Y363220D03*
X500990Y363220D03*
X481990Y363220D03*
D21*
X119380Y380340D03*
X119380Y361340D03*
X855980Y380340D03*
X855980Y361340D03*
D13*
X225400Y596900D03*
X206400Y596900D03*
X333350Y596900D03*
X314350Y596900D03*
X441300Y596900D03*
X422300Y596900D03*
X549250Y596900D03*
X530250Y596900D03*
X657200Y596900D03*
X638200Y596900D03*
X765150Y596900D03*
X746150Y596900D03*
X873100Y596900D03*
X854100Y596900D03*
X981050Y596900D03*
X962050Y596900D03*
X1148690Y303530D03*
X1129690Y303530D03*
X1148690Y283210D03*
X1129690Y283210D03*
X1148690Y262890D03*
X1129690Y262890D03*
X1148690Y242570D03*
X1129690Y242570D03*
X1148690Y222250D03*
X1129690Y222250D03*
M02*
