G04 EAGLE Gerber RS-274X export*
G75*
%MOMM*%
%FSLAX34Y34*%
%LPD*%
%INSolderpaste Top*%
%IPPOS*%
%AMOC8*
5,1,8,0,0,1.08239X$1,22.5*%
G01*
%ADD10R,0.690000X0.990000*%
%ADD11R,0.660400X2.032000*%
%ADD12R,2.032000X0.660400*%
%ADD13R,1.300000X1.500000*%
%ADD14R,0.500000X0.800000*%
%ADD15R,1.397000X2.108200*%
%ADD16R,1.500000X1.300000*%


D10*
X346100Y164900D03*
X355600Y164900D03*
X365100Y164900D03*
X365100Y190800D03*
X346100Y190800D03*
D11*
X882650Y279908D03*
X895350Y279908D03*
X908050Y279908D03*
X920750Y279908D03*
X933450Y279908D03*
X946150Y279908D03*
X958850Y279908D03*
X971550Y279908D03*
X971550Y380492D03*
X958850Y380492D03*
X946150Y380492D03*
X933450Y380492D03*
X920750Y380492D03*
X908050Y380492D03*
X895350Y380492D03*
X882650Y380492D03*
X984250Y279908D03*
X996950Y279908D03*
X984250Y380492D03*
X996950Y380492D03*
D10*
X384200Y88700D03*
X393700Y88700D03*
X403200Y88700D03*
X403200Y114600D03*
X384200Y114600D03*
X346100Y88700D03*
X355600Y88700D03*
X365100Y88700D03*
X365100Y114600D03*
X346100Y114600D03*
X422300Y88700D03*
X431800Y88700D03*
X441300Y88700D03*
X441300Y114600D03*
X422300Y114600D03*
D12*
X337566Y336550D03*
X399034Y336550D03*
X337566Y323850D03*
X337566Y311150D03*
X399034Y323850D03*
X399034Y311150D03*
X337566Y298450D03*
X399034Y298450D03*
X337566Y285750D03*
X399034Y285750D03*
X337566Y273050D03*
X337566Y260350D03*
X399034Y273050D03*
X399034Y260350D03*
X337566Y247650D03*
X399034Y247650D03*
X439166Y336550D03*
X500634Y336550D03*
X439166Y323850D03*
X439166Y311150D03*
X500634Y323850D03*
X500634Y311150D03*
X439166Y298450D03*
X500634Y298450D03*
X439166Y285750D03*
X500634Y285750D03*
X439166Y273050D03*
X439166Y260350D03*
X500634Y273050D03*
X500634Y260350D03*
X439166Y247650D03*
X500634Y247650D03*
D11*
X146050Y279908D03*
X158750Y279908D03*
X171450Y279908D03*
X184150Y279908D03*
X196850Y279908D03*
X209550Y279908D03*
X222250Y279908D03*
X234950Y279908D03*
X234950Y380492D03*
X222250Y380492D03*
X209550Y380492D03*
X196850Y380492D03*
X184150Y380492D03*
X171450Y380492D03*
X158750Y380492D03*
X146050Y380492D03*
X247650Y279908D03*
X260350Y279908D03*
X247650Y380492D03*
X260350Y380492D03*
D13*
X1148690Y323850D03*
X1129690Y323850D03*
D14*
X165800Y233800D03*
X173800Y233800D03*
X181800Y233800D03*
X189800Y233800D03*
X189800Y248800D03*
X181800Y248800D03*
X173800Y248800D03*
X165800Y248800D03*
X216600Y233800D03*
X224600Y233800D03*
X232600Y233800D03*
X240600Y233800D03*
X240600Y248800D03*
X232600Y248800D03*
X224600Y248800D03*
X216600Y248800D03*
X902400Y233800D03*
X910400Y233800D03*
X918400Y233800D03*
X926400Y233800D03*
X926400Y248800D03*
X918400Y248800D03*
X910400Y248800D03*
X902400Y248800D03*
X953200Y233800D03*
X961200Y233800D03*
X969200Y233800D03*
X977200Y233800D03*
X977200Y248800D03*
X969200Y248800D03*
X961200Y248800D03*
X953200Y248800D03*
D15*
X501500Y74100D03*
X546100Y74100D03*
X501500Y165100D03*
X546100Y165100D03*
X577700Y74100D03*
X622300Y74100D03*
X577700Y165100D03*
X622300Y165100D03*
X653900Y74100D03*
X698500Y74100D03*
X653900Y165100D03*
X698500Y165100D03*
X730100Y74100D03*
X774700Y74100D03*
X730100Y165100D03*
X774700Y165100D03*
X806300Y74100D03*
X850900Y74100D03*
X806300Y165100D03*
X850900Y165100D03*
X882500Y74100D03*
X927100Y74100D03*
X882500Y165100D03*
X927100Y165100D03*
X958700Y74100D03*
X1003300Y74100D03*
X958700Y165100D03*
X1003300Y165100D03*
X1034900Y74100D03*
X1079500Y74100D03*
X1034900Y165100D03*
X1079500Y165100D03*
D13*
X385470Y151130D03*
X404470Y151130D03*
X399390Y363220D03*
X380390Y363220D03*
X500990Y363220D03*
X481990Y363220D03*
D16*
X119380Y380340D03*
X119380Y361340D03*
X855980Y380340D03*
X855980Y361340D03*
D13*
X225400Y596900D03*
X206400Y596900D03*
X333350Y596900D03*
X314350Y596900D03*
X441300Y596900D03*
X422300Y596900D03*
X549250Y596900D03*
X530250Y596900D03*
X657200Y596900D03*
X638200Y596900D03*
X765150Y596900D03*
X746150Y596900D03*
X873100Y596900D03*
X854100Y596900D03*
X981050Y596900D03*
X962050Y596900D03*
X1148690Y303530D03*
X1129690Y303530D03*
X1148690Y283210D03*
X1129690Y283210D03*
X1148690Y262890D03*
X1129690Y262890D03*
X1148690Y242570D03*
X1129690Y242570D03*
X1148690Y222250D03*
X1129690Y222250D03*
M02*
